<?xml version="1.0" encoding="UTF-8" standalone="no"?>
<!-- Uploaded to: SVG Repo, www.svgrepo.com, Generator: SVG Repo Mixer Tools -->

<svg
   version="1.1"
   id="Layer_1"
   viewBox="0 0 64 64"
   xml:space="preserve"
   sodipodi:docname="browser-icon.svg"
   width="64"
   height="64"
   inkscape:version="1.3.2 (091e20e, 2023-11-25)"
   xmlns:inkscape="http://www.inkscape.org/namespaces/inkscape"
   xmlns:sodipodi="http://sodipodi.sourceforge.net/DTD/sodipodi-0.dtd"
   xmlns="http://www.w3.org/2000/svg"
   xmlns:svg="http://www.w3.org/2000/svg"><defs
   id="defs8" /><sodipodi:namedview
   id="namedview8"
   pagecolor="#ffffff"
   bordercolor="#000000"
   borderopacity="0.25"
   inkscape:showpageshadow="2"
   inkscape:pageopacity="0.0"
   inkscape:pagecheckerboard="0"
   inkscape:deskcolor="#d1d1d1"
   inkscape:zoom="4.4724826"
   inkscape:cx="44.941483"
   inkscape:cy="32.532267"
   inkscape:window-width="1392"
   inkscape:window-height="942"
   inkscape:window-x="1875"
   inkscape:window-y="25"
   inkscape:window-maximized="0"
   inkscape:current-layer="Layer_1" />
<path
   style="fill:#e9edf1;stroke-width:0.125"
   d="M 56.493998,58.58 H 7.5060013 C 3.378,58.58 0,55.201998 0,51.073998 v -38.068 C 0,8.877999 3.378,5.5 7.5060013,5.5 H 56.493 C 60.621999,5.5 64,8.877999 64,13.005998 v 38.068 C 64,55.201998 60.621999,58.58 56.493998,58.58 Z"
   id="path1" />
<path
   d="M 64,17.313001 V 13.005998 C 64,8.877 60.621999,5.5 56.493998,5.5 H 7.5060013 C 3.378,5.5 0,8.877999 0,13.005998 v 4.307003 z"
   id="path2"
   style="stroke-width:0.125" />
<circle
   style="fill:#fc6f58;stroke-width:0.125"
   cx="7.3000016"
   cy="11.406"
   r="1.678"
   id="circle2" />
<circle
   style="fill:#49c3e8;stroke-width:0.125"
   cx="12.080001"
   cy="11.406"
   r="1.678"
   id="circle3" />
<circle
   style="fill:#ffd160;stroke-width:0.125"
   cx="16.863001"
   cy="11.406"
   r="1.678"
   id="circle4" />
<g
   id="g4"
   transform="matrix(0.125,0,0,0.125,0,0.0399996)">
	<rect
   x="429.392"
   y="87.167999"
   style="fill:#ffffff"
   width="30.416"
   height="6.8239999"
   id="rect4" />
	<polygon
   style="fill:#ffffff"
   points="445.728,106.6 459.376,90.928 445.728,75.256 450.872,70.776 468.448,90.928 450.872,111.08 "
   id="polygon4" />
	<path
   style="fill:#ffffff"
   d="M 379.264,112.296 H 208.336 c -11.752,0 -21.368,-9.616 -21.368,-21.368 v 0 c 0,-11.752 9.616,-21.368 21.368,-21.368 h 170.928 c 11.752,0 21.368,9.616 21.368,21.368 v 0 c 0,11.752 -9.616,21.368 -21.368,21.368 z"
   id="path4" />
</g>
<path
   d="M 26.581999,12.685001 25.993997,10.28 H 26.462 l 0.228,1.091999 c 0.06,0.293002 0.116983,0.600002 0.156985,0.837999 h 0.007 C 26.893985,11.957 26.961,11.672 27.028982,11.368001 L 27.288983,10.28 h 0.459999 l 0.240001,1.107 c 0.05999,0.285 0.109989,0.553001 0.145007,0.812999 h 0.0082 c 0.04201,-0.265 0.09999,-0.538 0.163015,-0.831998 L 28.555203,10.28 h 0.447002 l -0.647,2.405001 h -0.47 L 27.635204,11.553 c -0.062,-0.273001 -0.102996,-0.502001 -0.132017,-0.763001 h -0.0082 c -0.04201,0.257 -0.08799,0.49 -0.160009,0.763001 l -0.277999,1.132001 z"
   id="path5"
   style="stroke-width:0.125" />
<path
   d="M 29.713997,12.685001 29.125999,10.28 h 0.467998 l 0.228002,1.091999 c 0.05999,0.293002 0.117,0.600002 0.156985,0.837999 h 0.007 c 0.04,-0.252998 0.107015,-0.537998 0.174997,-0.841997 L 30.42098,10.28 h 0.460001 l 0.239999,1.107 c 0.06002,0.285 0.109989,0.553001 0.145008,0.812999 h 0.0078 c 0.04201,-0.265 0.09999,-0.538 0.163015,-0.831998 L 31.686801,10.28 h 0.447002 l -0.647001,2.405001 H 31.016803 L 30.766801,11.553 c -0.062,-0.273001 -0.102995,-0.502001 -0.132016,-0.763001 h -0.0082 c -0.04201,0.257 -0.08799,0.49 -0.160008,0.763001 l -0.277999,1.132001 z"
   id="path6"
   style="stroke-width:0.125" />
<path
   d="M 32.845998,12.685001 32.257997,10.28 H 32.726 l 0.228,1.091999 c 0.05999,0.293002 0.116983,0.600002 0.156985,0.837999 h 0.007 C 33.157985,11.957 33.225,11.672 33.292982,11.368001 l 0.26,-1.088001 h 0.460001 l 0.239999,1.107 c 0.05999,0.285 0.10999,0.553001 0.145008,0.812999 h 0.0082 c 0.04201,-0.265 0.09999,-0.538 0.163015,-0.831998 L 34.819203,10.28 h 0.447 l -0.646999,2.405001 H 34.149202 L 33.8992,11.553 c -0.062,-0.273001 -0.102995,-0.502001 -0.131983,-0.763001 h -0.0082 c -0.04201,0.257 -0.08799,0.49 -0.160008,0.763001 l -0.278,1.132001 z"
   id="path7"
   style="stroke-width:0.125" />
<path
   d="m 35.257997,12.441 c 0,-0.163015 0.115006,-0.282001 0.272003,-0.282001 0.160008,0 0.271998,0.115006 0.271998,0.282001 0,0.162002 -0.107996,0.283 -0.271998,0.283 -0.160008,10e-4 -0.272003,-0.121003 -0.272003,-0.283 z"
   id="path8"
   style="stroke-width:0.125" />

<g
   id="g2"
   transform="matrix(0.56285788,0,0,0.56285787,13.432832,19.564566)"><ellipse
     style="opacity:1;fill:none;fill-opacity:1;stroke:none;stroke-width:1;stroke-linecap:square;stroke-miterlimit:4;stroke-dasharray:none;stroke-dashoffset:0;stroke-opacity:1"
     id="path3389"
     cx="32.25"
     cy="33.9375"
     rx="20.125"
     ry="20.0625" /><path
     inkscape:connector-curvature="0"
     id="path77"
     d="m 13.659807,44.545555 v 0 c 0.04779,0.08877 0.102425,0.177537 0.157052,0.266306 -0.05462,-0.08877 -0.102425,-0.177538 -0.157052,-0.266306 z m 16.381243,10.63859 c -0.163881,-0.01366 -0.33459,-0.03414 -0.49847,-0.05463 0.16388,0.02732 0.327761,0.04098 0.49847,0.05463 1.331531,0.136567 2.649405,0.143396 3.939966,0.03414 -1.290561,0.109254 -2.608435,0.102425 -3.939966,-0.03414 z m 4.015078,0.02732 c 0.437015,-0.04097 0.87403,-0.08877 1.304217,-0.157052 -0.430187,0.06828 -0.860373,0.116083 -1.304217,0.157052 z M 45.691659,50.43844 c 0.245821,-0.204852 0.491643,-0.409702 0.730635,-0.62821 -0.245821,0.218508 -0.484814,0.423358 -0.730635,0.62821 z"
     style="stroke-width:0.0682836" /><path
     inkscape:connector-curvature="0"
     id="path79"
     d="m 13.659807,44.545555 c -0.211679,0.02049 -0.416531,0.03415 -0.621381,0.0478 0.198022,-0.01366 0.409702,-0.03415 0.621381,-0.0478 z M 55.585958,31.749202 c -0.676009,0.382389 -1.392987,0.764777 -2.130449,1.147165 v 0 c 0.737462,-0.382388 1.447612,-0.757948 2.130449,-1.147165 0.12291,-0.06828 0.245821,-0.136567 0.361903,-0.204851 -0.12291,0.06828 -0.238993,0.143396 -0.361903,0.204851 z M 14.923054,32.42521 v 0 c 0.0068,-0.01366 0.0068,-0.02732 0.0068,-0.04097 -0.0068,0.0068 -0.0068,0.02049 -0.0068,0.04097 z"
     style="stroke-width:0.0682836" /><path
     inkscape:connector-curvature="0"
     id="path81"
     d="M 63.841449,21.998299 C 62.967418,19.068931 58.95234,17.880796 51.584537,18.36561 c -0.122911,0.0068 -0.245822,0.01366 -0.361904,0.02731 0.471158,0.600896 0.908173,1.222278 1.324703,1.864143 0.41653,0.648695 0.805746,1.324703 1.160822,2.014368 4.527204,-0.116082 5.933847,0.648694 6.254781,0.880858 -0.136568,0.361904 -0.853546,1.693434 -4.390638,3.939966 v 0 0 c -0.01366,0.0068 -0.02049,0.01366 -0.03415,0.02049 -0.01366,0.0068 -0.02049,0.01366 -0.03414,0.02049 -0.02049,0.01366 -0.0478,0.03414 -0.07511,0.0478 -0.0478,0.02732 -0.0956,0.06145 -0.150224,0.0956 -0.402873,0.25265 -0.839888,0.512128 -1.317874,0.785262 -0.116082,0.06828 -0.238993,0.136568 -0.361904,0.204851 -0.184365,0.102426 -0.375559,0.21168 -0.573582,0.320933 -0.06145,0.03415 -0.129739,0.06828 -0.198023,0.109254 -0.396044,-1.522725 -0.949142,-2.990823 -1.652463,-4.370153 -0.0478,-0.0956 -0.0956,-0.191194 -0.143396,-0.279963 -0.102425,-0.184365 -0.198022,-0.375559 -0.307277,-0.553097 -0.0478,-0.08877 -0.109253,-0.184365 -0.157051,-0.273134 C 50.423716,22.974757 50.28032,22.735764 50.130096,22.5036 v 0 c -0.853546,-1.338362 -1.850487,-2.567467 -2.983995,-3.68049 -0.396046,-0.396045 -0.812576,-0.771605 -1.242763,-1.140337 -0.170709,-0.143395 -0.348246,-0.286791 -0.518956,-0.430186 -0.08877,-0.06828 -0.177537,-0.136568 -0.266306,-0.204851 -0.238992,-0.184366 -0.477985,-0.361904 -0.723806,-0.532613 -0.198022,-0.136567 -0.396045,-0.273134 -0.600896,-0.402873 -0.402873,-0.266306 -0.819403,-0.512127 -1.242762,-0.75112 -0.293619,-0.163881 -0.58724,-0.320933 -0.894515,-0.471157 -0.102426,-0.0478 -0.204851,-0.102426 -0.300449,-0.150224 -0.273134,-0.129739 -0.546269,-0.25265 -0.819403,-0.37556 -0.273135,-0.116082 -0.559926,-0.232165 -0.839889,-0.33459 -0.279963,-0.109254 -0.566754,-0.204851 -0.860373,-0.300448 -0.286792,-0.0956 -0.580412,-0.184366 -0.874031,-0.266306 -1.181307,-0.33459 -2.403584,-0.566754 -3.666831,-0.689665 -3.120562,-0.314105 -6.159184,0.06828 -8.951984,1.017426 -0.286792,0.0956 -0.566755,0.198023 -0.853546,0.307277 -0.279963,0.109253 -0.559926,0.225336 -0.839889,0.348246 -0.273134,0.122911 -0.546269,0.245821 -0.819403,0.382389 -2.157763,1.058396 -4.13116,2.471867 -5.817766,4.17213 -0.525784,0.532612 -1.031082,1.092538 -1.495412,1.679777 -0.191194,0.232164 -0.368731,0.471157 -0.546269,0.716978 -0.355074,0.484814 -0.689664,0.990113 -1.010597,1.50224 -0.238993,0.389217 -0.464329,0.778433 -0.676008,1.188135 -0.92183,1.748062 -1.604666,3.646346 -2.014367,5.660713 -0.109254,0.518956 -0.191194,1.04474 -0.259478,1.577352 -0.02049,0.177538 -0.04097,0.355075 -0.06145,0.532612 -0.08877,0.88086 -0.12291,1.761719 -0.102425,2.622092 0.0478,2.144106 0.41653,4.219929 1.072052,6.186497 -1.235933,0.07511 -2.2806729,0.0956 -3.1751883,0.07511 -3.3117579,-0.07511 -4.4247811,-0.682837 -4.704744,-0.887688 0.1297389,-0.33459 0.7647767,-1.529553 3.7487715,-3.523435 -0.095597,-0.778433 -0.150224,-1.570524 -0.1707091,-2.369443 -0.020485,-0.751119 0,-1.509068 0.054627,-2.273844 -5.8928775,3.455152 -8.35108835,6.514258 -7.51119967,9.327544 0.61455271,2.04168 2.73817377,3.236644 6.46646007,3.612204 1.1198516,0.109254 2.3830986,0.150224 3.7897415,0.116083 0.635038,-0.01366 1.297389,-0.0478 1.993882,-0.08877 0.204851,-0.01366 0.409702,-0.02732 0.614553,-0.04098 0.204851,-0.01366 0.41653,-0.03414 0.621381,-0.04779 v 0 0 0 c 0.0478,0.08877 0.102425,0.177537 0.157053,0.266306 2.91571,4.92325 7.770676,8.624222 13.615756,9.948925 0.211679,0.0478 0.423358,0.0956 0.641866,0.136567 0.16388,0.03414 0.320933,0.06145 0.484814,0.08877 0.327761,0.05463 0.655523,0.102425 0.983284,0.143396 0.163881,0.02049 0.33459,0.04097 0.498471,0.05463 1.33153,0.136567 2.649404,0.143396 3.939965,0.03414 0.02732,0 0.05463,-0.0068 0.08194,-0.0068 0.437015,-0.04097 0.87403,-0.0956 1.304217,-0.157052 0.150224,-0.02049 0.300448,-0.0478 0.443844,-0.07511 0.53944,-0.0956 1.072053,-0.204852 1.597837,-0.341418 0.334589,-0.08877 0.669179,-0.177538 1.003769,-0.279963 0.491642,-0.150224 0.983285,-0.320934 1.46127,-0.512128 0.157052,-0.06145 0.320933,-0.122911 0.477985,-0.191194 0.723807,-0.300448 1.433956,-0.641866 2.116793,-1.024254 0.116082,-0.06145 0.225336,-0.129739 0.341418,-0.191194 0.225336,-0.12974 0.450672,-0.266307 0.66918,-0.402874 0.553097,-0.348247 1.08571,-0.716978 1.604665,-1.113024 0.204851,-0.157051 0.409702,-0.320932 0.614553,-0.484813 0.245821,-0.204851 0.491642,-0.409702 0.730635,-0.628209 0.116082,-0.109254 0.238992,-0.218508 0.355074,-0.327762 0.116083,-0.109254 0.232165,-0.218507 0.348247,-0.33459 3.427838,-3.373211 5.742654,-7.907244 6.254781,-13.05583 0.109254,-1.078882 0.129739,-2.144106 0.08194,-3.202503 v 0 c 0.737462,-0.382388 1.45444,-0.764776 2.130449,-1.147165 0.12291,-0.06828 0.245821,-0.136567 0.361903,-0.204851 0.07511,-0.04097 0.143396,-0.08877 0.218508,-0.129738 0.0478,-0.02732 0.08877,-0.05462 0.136567,-0.08194 4.902765,-2.867913 7.436087,-5.462691 7.67508,-7.873103 0.05463,-0.505299 0.0068,-0.996941 -0.136567,-1.474926 z M 49.454087,34.815137 c -0.01366,0.29362 -0.03414,0.594068 -0.06828,0.887687 -0.949142,9.498254 -9.450455,16.456356 -18.955536,15.500385 -5.162243,-0.512127 -9.566537,-3.263958 -12.366166,-7.190267 3.864854,-0.573582 8.125752,-1.468097 12.530047,-2.642576 -0.764777,-1.08571 -1.270076,-2.369442 -1.433957,-3.762428 -4.663772,1.229105 -9.156835,2.130449 -13.130943,2.649404 -0.949142,-2.41724 -1.365672,-5.08713 -1.113023,-7.83896 0,-0.01366 0,-0.02732 0.0068,-0.04098 0,-0.01366 0,-0.02732 0.0068,-0.04097 0,-0.02732 0.0068,-0.05462 0.0068,-0.08194 0.163881,-1.666121 0.566754,-3.257129 1.16765,-4.738884 2.7928,-6.958103 9.948925,-11.546763 17.781058,-10.768329 2.983995,0.300448 5.71534,1.338359 8.030155,2.922539 1.399815,0.955971 2.642577,2.109964 3.700973,3.414182 1.734405,2.144106 2.96351,4.697914 3.523435,7.463401 -1.468097,0.689665 -3.031792,1.365673 -4.6706,2.021196 0.655523,1.147165 1.04474,2.471867 1.078881,3.885339 1.352017,-0.532613 2.656234,-1.08571 3.905824,-1.638808 z"
     style="fill:#af001f;fill-opacity:0.941176;stroke-width:0.0682836" /><path
     inkscape:connector-curvature="0"
     id="path83"
     d="m 55.53133,27.1264 c 0.01366,-0.0068 0.02732,-0.01366 0.03415,-0.02049 v 0 c -0.01366,0 -0.02049,0.0068 -0.03415,0.02049 z m -9.63482,-9.443627 c 0.430187,0.361904 0.846717,0.744292 1.242763,1.140337 v 0 C 46.736399,18.420237 46.319868,18.044677 45.89651,17.682773 Z m -6.213811,-3.653174 c 0.279964,0.109254 0.566755,0.218508 0.839889,0.33459 -0.273134,-0.116082 -0.553097,-0.232165 -0.839889,-0.33459 z m -1.727575,-0.573582 c 0.293619,0.08194 0.587239,0.170709 0.87403,0.266306 -0.29362,-0.0956 -0.580411,-0.184366 -0.87403,-0.266306 z"
     style="stroke-width:0.0682836" /><polygon
     points="395,1083.5 376.6,1046.6 410.9,1033.9 421.8,1073.6 445.3,1039.1 473.5,1061.8 440.8,1092.7 485.6,1094.7 479.2,1131.2 438.8,1119.7 456.1,1156.5 421.7,1169.1 411.9,1129.6 387.7,1164.9 359.7,1141 392.9,1110.4 347.6,1108.2 348.2,1104.5 353.8,1072.9 "
     id="polygon85"
     transform="matrix(0.06828363,0,0,0.06828363,-17.600441,-19.921024)"
     style="fill:#af001f;fill-opacity:0.941176" /><polygon
     points="834.4,296.1 868.8,283.5 879.7,323.2 903.2,288.7 931.4,311.4 898.7,342.3 943.5,344.3 937.1,380.8 896.7,369.3 913.9,406.1 879.6,418.7 869.8,379.2 845.5,414.5 817.5,390.6 850.8,360 805.4,357.7 806.1,354.1 811.7,322.4 852.8,333.1 "
     id="polygon89"
     transform="matrix(0.06828363,0,0,0.06828363,-17.763581,-19.105323)"
     style="fill:#af001f;fill-opacity:0.941176;stroke:#af001f;stroke-opacity:0.941176" /><polygon
     points="538.2,1168.3 526,1143.7 548.8,1135.3 556.1,1161.7 571.7,1138.8 590.5,1153.9 568.7,1174.5 598.5,1175.7 594.3,1200 567.4,1192.4 578.9,1216.9 556,1225.3 549.5,1199 533.4,1222.4 514.7,1206.6 536.9,1186.2 506.7,1184.7 507.1,1182.3 510.8,1161.2 "
     id="polygon93"
     transform="matrix(0.06828363,0,0,0.06828363,-17.600441,-19.921024)"
     style="fill:#af001f;fill-opacity:0.941176" /><polygon
     points="1002.2,433.6 989.9,409 1012.8,400.6 1020,427 1035.6,404.1 1054.4,419.1 1032.7,439.7 1062.4,441 1058.2,465.3 1031.3,457.7 1042.8,482.1 1019.9,490.5 1013.4,464.3 997.3,487.7 978.7,471.8 1000.8,451.5 970.6,450 971,447.5 974.8,426.5 "
     id="polygon97"
     transform="matrix(0.06828363,0,0,0.06828363,-17.600441,-19.921024)"
     style="fill:#af001f;fill-opacity:0.941176" /><polygon
     points="402.2,465.1 390,440.6 412.8,432.2 420.1,458.6 435.7,435.6 454.5,450.7 432.7,471.3 462.5,472.6 458.3,496.9 431.4,489.3 442.8,513.7 420,522.1 413.5,495.8 397.3,519.3 378.7,503.4 400.9,483 370.7,481.6 371.1,479.1 374.8,458.1 "
     id="polygon101"
     transform="matrix(0.06828363,0,0,0.06828363,-17.600441,-19.921024)"
     style="fill:#af001f;fill-opacity:0.941176" /><polygon
     points="1074.6,1036.7 1059.8,1006.9 1087.4,996.7 1096.2,1028.7 1115.1,1001 1137.8,1019.2 1111.5,1044.1 1147.5,1045.6 1142.4,1075.1 1109.9,1065.8 1123.7,1095.4 1096.1,1105.6 1088.2,1073.8 1068.7,1102.2 1046.1,1082.9 1072.9,1058.3 1036.4,1056.5 1036.9,1053.5 1041.4,1028.1 "
     id="polygon105"
     transform="matrix(0.06828363,0,0,0.06828363,-17.600441,-19.921024)"
     style="fill:#af001f;fill-opacity:0.941176" /><polygon
     id="polygon109"
     points="706.3,835.5 714.3,790.1 773.4,805.4 747,752.4 796.3,734.3 812,791.3 845.7,741.7 886.2,774.3 839.2,818.7 903.5,821.5 894.3,873.9 836.3,857.5 861.1,910.2 811.8,928.3 797.7,871.6 762.9,922.3 722.7,888 770.5,844 705.4,840.8 "
     transform="matrix(0.06828363,0,0,0.06828363,-17.600441,-19.921024)"
     style="fill:#af001f;fill-opacity:0.941176" /></g></svg>
