<?xml version="1.0" encoding="UTF-8" standalone="no"?>
<!-- Uploaded to: SVG Repo, www.svgrepo.com, Generator: SVG Repo Mixer Tools -->

<svg
   version="1.1"
   id="Layer_1"
   viewBox="0 0 120 60"
   xml:space="preserve"
   sodipodi:docname="browser.svg"
   width="120"
   height="60"
   inkscape:version="1.3.2 (091e20e, 2023-11-25)"
   xmlns:inkscape="http://www.inkscape.org/namespaces/inkscape"
   xmlns:sodipodi="http://sodipodi.sourceforge.net/DTD/sodipodi-0.dtd"
   xmlns="http://www.w3.org/2000/svg"
   xmlns:svg="http://www.w3.org/2000/svg"><defs
   id="defs8" /><sodipodi:namedview
   id="namedview8"
   pagecolor="#ffffff"
   bordercolor="#000000"
   borderopacity="0.25"
   inkscape:showpageshadow="2"
   inkscape:pageopacity="0.0"
   inkscape:pagecheckerboard="0"
   inkscape:deskcolor="#d1d1d1"
   inkscape:zoom="4.4724826"
   inkscape:cx="66.182482"
   inkscape:cy="32.532267"
   inkscape:window-width="1392"
   inkscape:window-height="942"
   inkscape:window-x="1875"
   inkscape:window-y="25"
   inkscape:window-maximized="0"
   inkscape:current-layer="Layer_1" />
<path
   style="fill:#e9edf1;stroke-width:0.0764961"
   d="M 39.715109,45.307946 H 9.7359944 c -2.5262069,0 -4.5934367,-2.067231 -4.5934367,-4.593437 v -23.29642 c 0,-2.526206 2.0672298,-4.593435 4.5934367,-4.593435 H 39.714498 c 2.526818,0 4.594048,2.067229 4.594048,4.593435 v 23.29642 c 0,2.526206 -2.06723,4.593437 -4.593437,4.593437 z"
   id="path1" />
<path
   d="m 44.308546,20.053839 v -2.63575 c 0,-2.526817 -2.06723,-4.593435 -4.593437,-4.593435 H 9.7359944 c -2.5262069,0 -4.5934367,2.067229 -4.5934367,4.593435 v 2.63575 z"
   id="path2"
   style="stroke-width:0.0764961" />
<circle
   style="fill:#fc6f58;stroke-width:0.0764961"
   cx="9.6099291"
   cy="16.43894"
   r="1.0268832"
   id="circle2" />
<circle
   style="fill:#49c3e8;stroke-width:0.0764961"
   cx="12.535139"
   cy="16.43894"
   r="1.0268832"
   id="circle3" />
<circle
   style="fill:#ffd160;stroke-width:0.0764961"
   cx="15.462184"
   cy="16.43894"
   r="1.0268832"
   id="circle4" />
<g
   id="g4"
   transform="matrix(0.07649607,0,0,0.07649607,5.1425577,9.4833053)">
	<rect
   x="429.392"
   y="87.167999"
   style="fill:#ffffff"
   width="30.416"
   height="6.8239999"
   id="rect4" />
	<polygon
   style="fill:#ffffff"
   points="450.872,70.776 468.448,90.928 450.872,111.08 445.728,106.6 459.376,90.928 445.728,75.256 "
   id="polygon4" />
	<path
   style="fill:#ffffff"
   d="M 379.264,112.296 H 208.336 c -11.752,0 -21.368,-9.616 -21.368,-21.368 v 0 c 0,-11.752 9.616,-21.368 21.368,-21.368 h 170.928 c 11.752,0 21.368,9.616 21.368,21.368 v 0 c 0,11.752 -9.616,21.368 -21.368,21.368 z"
   id="path4" />
</g>
<path
   d="m 21.409906,17.221649 -0.359839,-1.471785 h 0.286403 l 0.139529,0.668269 c 0.03672,0.179308 0.07159,0.367182 0.09607,0.512829 h 0.0043 c 0.02448,-0.154827 0.06549,-0.329238 0.107093,-0.515276 l 0.159112,-0.665822 h 0.281505 l 0.146873,0.677449 c 0.03671,0.174411 0.06731,0.338419 0.08874,0.49753 h 0.005 c 0.02571,-0.162172 0.06119,-0.329239 0.09976,-0.509157 l 0.152991,-0.665822 h 0.273551 L 22.49505,17.221649 H 22.207425 L 22.054432,16.5289 c -0.03794,-0.167068 -0.06303,-0.307209 -0.08079,-0.466933 h -0.005 c -0.02571,0.157276 -0.05385,0.299865 -0.09792,0.466933 l -0.170127,0.692749 z"
   id="path5"
   style="stroke-width:0.0764961" />
<path
   d="m 23.32659,17.221649 -0.359836,-1.471785 h 0.2864 l 0.13953,0.668269 c 0.03671,0.179308 0.0716,0.367182 0.09607,0.512829 h 0.0043 c 0.02448,-0.154827 0.06549,-0.329238 0.107093,-0.515276 l 0.159111,-0.665822 h 0.281506 l 0.146872,0.677449 c 0.03673,0.174411 0.06731,0.338419 0.08874,0.49753 h 0.0048 c 0.02571,-0.162172 0.06119,-0.329239 0.09976,-0.509157 l 0.152991,-0.665822 h 0.273551 l -0.395944,1.471785 H 24.123909 L 23.970916,16.5289 c -0.03794,-0.167068 -0.06303,-0.307209 -0.08079,-0.466933 h -0.005 c -0.02571,0.157276 -0.05385,0.299865 -0.09792,0.466933 l -0.170127,0.692749 z"
   id="path6"
   style="stroke-width:0.0764961" />
<path
   d="m 25.243276,17.221649 -0.359838,-1.471785 h 0.286403 l 0.139529,0.668269 c 0.03671,0.179308 0.07159,0.367182 0.09607,0.512829 h 0.0043 c 0.02448,-0.154827 0.06549,-0.329238 0.107093,-0.515276 l 0.159112,-0.665822 h 0.281506 l 0.146872,0.677449 c 0.03671,0.174411 0.06731,0.338419 0.08874,0.49753 h 0.005 c 0.02571,-0.162172 0.06119,-0.329239 0.09976,-0.509157 l 0.152991,-0.665822 h 0.27355 l -0.395943,1.471785 H 26.040796 L 25.887803,16.5289 c -0.03794,-0.167068 -0.06303,-0.307209 -0.08077,-0.466933 h -0.005 c -0.02571,0.157276 -0.05385,0.299865 -0.09792,0.466933 l -0.170127,0.692749 z"
   id="path7"
   style="stroke-width:0.0764961" />
<path
   d="m 26.719344,17.072328 c 0,-0.09976 0.07038,-0.172576 0.166457,-0.172576 0.09792,0 0.166454,0.07038 0.166454,0.172576 0,0.09914 -0.06609,0.173187 -0.166454,0.173187 -0.09792,6.12e-4 -0.166457,-0.07405 -0.166457,-0.173187 z"
   id="path8"
   style="stroke-width:0.0764961" />

<g
   id="g2"
   transform="matrix(0.34445133,0,0,0.34445133,13.363029,21.431726)"><ellipse
     style="opacity:1;fill:none;fill-opacity:1;stroke:none;stroke-width:1;stroke-linecap:square;stroke-miterlimit:4;stroke-dasharray:none;stroke-dashoffset:0;stroke-opacity:1"
     id="path3389"
     cx="32.25"
     cy="33.9375"
     rx="20.125"
     ry="20.0625" /><path
     inkscape:connector-curvature="0"
     id="path77"
     d="m 13.659807,44.545555 v 0 c 0.04779,0.08877 0.102425,0.177537 0.157052,0.266306 -0.05462,-0.08877 -0.102425,-0.177538 -0.157052,-0.266306 z m 16.381243,10.63859 c -0.163881,-0.01366 -0.33459,-0.03414 -0.49847,-0.05463 0.16388,0.02732 0.327761,0.04098 0.49847,0.05463 1.331531,0.136567 2.649405,0.143396 3.939966,0.03414 -1.290561,0.109254 -2.608435,0.102425 -3.939966,-0.03414 z m 4.015078,0.02732 c 0.437015,-0.04097 0.87403,-0.08877 1.304217,-0.157052 -0.430187,0.06828 -0.860373,0.116083 -1.304217,0.157052 z M 45.691659,50.43844 c 0.245821,-0.204852 0.491643,-0.409702 0.730635,-0.62821 -0.245821,0.218508 -0.484814,0.423358 -0.730635,0.62821 z"
     style="stroke-width:0.0682836" /><path
     inkscape:connector-curvature="0"
     id="path79"
     d="m 13.659807,44.545555 c -0.211679,0.02049 -0.416531,0.03415 -0.621381,0.0478 0.198022,-0.01366 0.409702,-0.03415 0.621381,-0.0478 z M 55.585958,31.749202 c -0.676009,0.382389 -1.392987,0.764777 -2.130449,1.147165 v 0 c 0.737462,-0.382388 1.447612,-0.757948 2.130449,-1.147165 0.12291,-0.06828 0.245821,-0.136567 0.361903,-0.204851 -0.12291,0.06828 -0.238993,0.143396 -0.361903,0.204851 z M 14.923054,32.42521 v 0 c 0.0068,-0.01366 0.0068,-0.02732 0.0068,-0.04097 -0.0068,0.0068 -0.0068,0.02049 -0.0068,0.04097 z"
     style="stroke-width:0.0682836" /><path
     inkscape:connector-curvature="0"
     id="path81"
     d="M 63.841449,21.998299 C 62.967418,19.068931 58.95234,17.880796 51.584537,18.36561 c -0.122911,0.0068 -0.245822,0.01366 -0.361904,0.02731 0.471158,0.600896 0.908173,1.222278 1.324703,1.864143 0.41653,0.648695 0.805746,1.324703 1.160822,2.014368 4.527204,-0.116082 5.933847,0.648694 6.254781,0.880858 -0.136568,0.361904 -0.853546,1.693434 -4.390638,3.939966 v 0 0 c -0.01366,0.0068 -0.02049,0.01366 -0.03415,0.02049 -0.01366,0.0068 -0.02049,0.01366 -0.03414,0.02049 -0.02049,0.01366 -0.0478,0.03414 -0.07511,0.0478 -0.0478,0.02732 -0.0956,0.06145 -0.150224,0.0956 -0.402873,0.25265 -0.839888,0.512128 -1.317874,0.785262 -0.116082,0.06828 -0.238993,0.136568 -0.361904,0.204851 -0.184365,0.102426 -0.375559,0.21168 -0.573582,0.320933 -0.06145,0.03415 -0.129739,0.06828 -0.198023,0.109254 -0.396044,-1.522725 -0.949142,-2.990823 -1.652463,-4.370153 -0.0478,-0.0956 -0.0956,-0.191194 -0.143396,-0.279963 -0.102425,-0.184365 -0.198022,-0.375559 -0.307277,-0.553097 -0.0478,-0.08877 -0.109253,-0.184365 -0.157051,-0.273134 C 50.423716,22.974757 50.28032,22.735764 50.130096,22.5036 v 0 c -0.853546,-1.338362 -1.850487,-2.567467 -2.983995,-3.68049 -0.396046,-0.396045 -0.812576,-0.771605 -1.242763,-1.140337 -0.170709,-0.143395 -0.348246,-0.286791 -0.518956,-0.430186 -0.08877,-0.06828 -0.177537,-0.136568 -0.266306,-0.204851 -0.238992,-0.184366 -0.477985,-0.361904 -0.723806,-0.532613 -0.198022,-0.136567 -0.396045,-0.273134 -0.600896,-0.402873 -0.402873,-0.266306 -0.819403,-0.512127 -1.242762,-0.75112 -0.293619,-0.163881 -0.58724,-0.320933 -0.894515,-0.471157 -0.102426,-0.0478 -0.204851,-0.102426 -0.300449,-0.150224 -0.273134,-0.129739 -0.546269,-0.25265 -0.819403,-0.37556 -0.273135,-0.116082 -0.559926,-0.232165 -0.839889,-0.33459 -0.279963,-0.109254 -0.566754,-0.204851 -0.860373,-0.300448 -0.286792,-0.0956 -0.580412,-0.184366 -0.874031,-0.266306 -1.181307,-0.33459 -2.403584,-0.566754 -3.666831,-0.689665 -3.120562,-0.314105 -6.159184,0.06828 -8.951984,1.017426 -0.286792,0.0956 -0.566755,0.198023 -0.853546,0.307277 -0.279963,0.109253 -0.559926,0.225336 -0.839889,0.348246 -0.273134,0.122911 -0.546269,0.245821 -0.819403,0.382389 -2.157763,1.058396 -4.13116,2.471867 -5.817766,4.17213 -0.525784,0.532612 -1.031082,1.092538 -1.495412,1.679777 -0.191194,0.232164 -0.368731,0.471157 -0.546269,0.716978 -0.355074,0.484814 -0.689664,0.990113 -1.010597,1.50224 -0.238993,0.389217 -0.464329,0.778433 -0.676008,1.188135 -0.92183,1.748062 -1.604666,3.646346 -2.014367,5.660713 -0.109254,0.518956 -0.191194,1.04474 -0.259478,1.577352 -0.02049,0.177538 -0.04097,0.355075 -0.06145,0.532612 -0.08877,0.88086 -0.12291,1.761719 -0.102425,2.622092 0.0478,2.144106 0.41653,4.219929 1.072052,6.186497 -1.235933,0.07511 -2.2806729,0.0956 -3.1751883,0.07511 -3.3117579,-0.07511 -4.4247811,-0.682837 -4.704744,-0.887688 0.1297389,-0.33459 0.7647767,-1.529553 3.7487715,-3.523435 -0.095597,-0.778433 -0.150224,-1.570524 -0.1707091,-2.369443 -0.020485,-0.751119 0,-1.509068 0.054627,-2.273844 -5.8928775,3.455152 -8.35108835,6.514258 -7.51119967,9.327544 0.61455271,2.04168 2.73817377,3.236644 6.46646007,3.612204 1.1198516,0.109254 2.3830986,0.150224 3.7897415,0.116083 0.635038,-0.01366 1.297389,-0.0478 1.993882,-0.08877 0.204851,-0.01366 0.409702,-0.02732 0.614553,-0.04098 0.204851,-0.01366 0.41653,-0.03414 0.621381,-0.04779 v 0 0 0 c 0.0478,0.08877 0.102425,0.177537 0.157053,0.266306 2.91571,4.92325 7.770676,8.624222 13.615756,9.948925 0.211679,0.0478 0.423358,0.0956 0.641866,0.136567 0.16388,0.03414 0.320933,0.06145 0.484814,0.08877 0.327761,0.05463 0.655523,0.102425 0.983284,0.143396 0.163881,0.02049 0.33459,0.04097 0.498471,0.05463 1.33153,0.136567 2.649404,0.143396 3.939965,0.03414 0.02732,0 0.05463,-0.0068 0.08194,-0.0068 0.437015,-0.04097 0.87403,-0.0956 1.304217,-0.157052 0.150224,-0.02049 0.300448,-0.0478 0.443844,-0.07511 0.53944,-0.0956 1.072053,-0.204852 1.597837,-0.341418 0.334589,-0.08877 0.669179,-0.177538 1.003769,-0.279963 0.491642,-0.150224 0.983285,-0.320934 1.46127,-0.512128 0.157052,-0.06145 0.320933,-0.122911 0.477985,-0.191194 0.723807,-0.300448 1.433956,-0.641866 2.116793,-1.024254 0.116082,-0.06145 0.225336,-0.129739 0.341418,-0.191194 0.225336,-0.12974 0.450672,-0.266307 0.66918,-0.402874 0.553097,-0.348247 1.08571,-0.716978 1.604665,-1.113024 0.204851,-0.157051 0.409702,-0.320932 0.614553,-0.484813 0.245821,-0.204851 0.491642,-0.409702 0.730635,-0.628209 0.116082,-0.109254 0.238992,-0.218508 0.355074,-0.327762 0.116083,-0.109254 0.232165,-0.218507 0.348247,-0.33459 3.427838,-3.373211 5.742654,-7.907244 6.254781,-13.05583 0.109254,-1.078882 0.129739,-2.144106 0.08194,-3.202503 v 0 c 0.737462,-0.382388 1.45444,-0.764776 2.130449,-1.147165 0.12291,-0.06828 0.245821,-0.136567 0.361903,-0.204851 0.07511,-0.04097 0.143396,-0.08877 0.218508,-0.129738 0.0478,-0.02732 0.08877,-0.05462 0.136567,-0.08194 4.902765,-2.867913 7.436087,-5.462691 7.67508,-7.873103 0.05463,-0.505299 0.0068,-0.996941 -0.136567,-1.474926 z M 49.454087,34.815137 c -0.01366,0.29362 -0.03414,0.594068 -0.06828,0.887687 -0.949142,9.498254 -9.450455,16.456356 -18.955536,15.500385 -5.162243,-0.512127 -9.566537,-3.263958 -12.366166,-7.190267 3.864854,-0.573582 8.125752,-1.468097 12.530047,-2.642576 -0.764777,-1.08571 -1.270076,-2.369442 -1.433957,-3.762428 -4.663772,1.229105 -9.156835,2.130449 -13.130943,2.649404 -0.949142,-2.41724 -1.365672,-5.08713 -1.113023,-7.83896 0,-0.01366 0,-0.02732 0.0068,-0.04098 0,-0.01366 0,-0.02732 0.0068,-0.04097 0,-0.02732 0.0068,-0.05462 0.0068,-0.08194 0.163881,-1.666121 0.566754,-3.257129 1.16765,-4.738884 2.7928,-6.958103 9.948925,-11.546763 17.781058,-10.768329 2.983995,0.300448 5.71534,1.338359 8.030155,2.922539 1.399815,0.955971 2.642577,2.109964 3.700973,3.414182 1.734405,2.144106 2.96351,4.697914 3.523435,7.463401 -1.468097,0.689665 -3.031792,1.365673 -4.6706,2.021196 0.655523,1.147165 1.04474,2.471867 1.078881,3.885339 1.352017,-0.532613 2.656234,-1.08571 3.905824,-1.638808 z"
     style="fill:#af001f;fill-opacity:0.941176;stroke-width:0.0682836" /><path
     inkscape:connector-curvature="0"
     id="path83"
     d="m 55.53133,27.1264 c 0.01366,-0.0068 0.02732,-0.01366 0.03415,-0.02049 v 0 c -0.01366,0 -0.02049,0.0068 -0.03415,0.02049 z m -9.63482,-9.443627 c 0.430187,0.361904 0.846717,0.744292 1.242763,1.140337 v 0 C 46.736399,18.420237 46.319868,18.044677 45.89651,17.682773 Z m -6.213811,-3.653174 c 0.279964,0.109254 0.566755,0.218508 0.839889,0.33459 -0.273134,-0.116082 -0.553097,-0.232165 -0.839889,-0.33459 z m -1.727575,-0.573582 c 0.293619,0.08194 0.587239,0.170709 0.87403,0.266306 -0.29362,-0.0956 -0.580411,-0.184366 -0.87403,-0.266306 z"
     style="stroke-width:0.0682836" /><polygon
     points="456.1,1156.5 421.7,1169.1 411.9,1129.6 387.7,1164.9 359.7,1141 392.9,1110.4 347.6,1108.2 348.2,1104.5 353.8,1072.9 395,1083.5 376.6,1046.6 410.9,1033.9 421.8,1073.6 445.3,1039.1 473.5,1061.8 440.8,1092.7 485.6,1094.7 479.2,1131.2 438.8,1119.7 "
     id="polygon85"
     transform="matrix(0.06828363,0,0,0.06828363,-17.600441,-19.921024)"
     style="fill:#af001f;fill-opacity:0.941176" /><polygon
     points="879.6,418.7 869.8,379.2 845.5,414.5 817.5,390.6 850.8,360 805.4,357.7 806.1,354.1 811.7,322.4 852.8,333.1 834.4,296.1 868.8,283.5 879.7,323.2 903.2,288.7 931.4,311.4 898.7,342.3 943.5,344.3 937.1,380.8 896.7,369.3 913.9,406.1 "
     id="polygon89"
     transform="matrix(0.06828363,0,0,0.06828363,-17.763581,-19.105323)"
     style="fill:#af001f;fill-opacity:0.941176;stroke:#af001f;stroke-opacity:0.941176" /><polygon
     points="578.9,1216.9 556,1225.3 549.5,1199 533.4,1222.4 514.7,1206.6 536.9,1186.2 506.7,1184.7 507.1,1182.3 510.8,1161.2 538.2,1168.3 526,1143.7 548.8,1135.3 556.1,1161.7 571.7,1138.8 590.5,1153.9 568.7,1174.5 598.5,1175.7 594.3,1200 567.4,1192.4 "
     id="polygon93"
     transform="matrix(0.06828363,0,0,0.06828363,-17.600441,-19.921024)"
     style="fill:#af001f;fill-opacity:0.941176" /><polygon
     points="1042.8,482.1 1019.9,490.5 1013.4,464.3 997.3,487.7 978.7,471.8 1000.8,451.5 970.6,450 971,447.5 974.8,426.5 1002.2,433.6 989.9,409 1012.8,400.6 1020,427 1035.6,404.1 1054.4,419.1 1032.7,439.7 1062.4,441 1058.2,465.3 1031.3,457.7 "
     id="polygon97"
     transform="matrix(0.06828363,0,0,0.06828363,-17.600441,-19.921024)"
     style="fill:#af001f;fill-opacity:0.941176" /><polygon
     points="442.8,513.7 420,522.1 413.5,495.8 397.3,519.3 378.7,503.4 400.9,483 370.7,481.6 371.1,479.1 374.8,458.1 402.2,465.1 390,440.6 412.8,432.2 420.1,458.6 435.7,435.6 454.5,450.7 432.7,471.3 462.5,472.6 458.3,496.9 431.4,489.3 "
     id="polygon101"
     transform="matrix(0.06828363,0,0,0.06828363,-17.600441,-19.921024)"
     style="fill:#af001f;fill-opacity:0.941176" /><polygon
     points="1123.7,1095.4 1096.1,1105.6 1088.2,1073.8 1068.7,1102.2 1046.1,1082.9 1072.9,1058.3 1036.4,1056.5 1036.9,1053.5 1041.4,1028.1 1074.6,1036.7 1059.8,1006.9 1087.4,996.7 1096.2,1028.7 1115.1,1001 1137.8,1019.2 1111.5,1044.1 1147.5,1045.6 1142.4,1075.1 1109.9,1065.8 "
     id="polygon105"
     transform="matrix(0.06828363,0,0,0.06828363,-17.600441,-19.921024)"
     style="fill:#af001f;fill-opacity:0.941176" /><polygon
     id="polygon109"
     points="894.3,873.9 836.3,857.5 861.1,910.2 811.8,928.3 797.7,871.6 762.9,922.3 722.7,888 770.5,844 705.4,840.8 706.3,835.5 714.3,790.1 773.4,805.4 747,752.4 796.3,734.3 812,791.3 845.7,741.7 886.2,774.3 839.2,818.7 903.5,821.5 "
     transform="matrix(0.06828363,0,0,0.06828363,-17.600441,-19.921024)"
     style="fill:#af001f;fill-opacity:0.941176" /></g><path
   style="font-weight:500;font-stretch:semi-condensed;font-size:21.3333px;line-height:1;font-family:'Barlow Semi Condensed';-inkscape-font-specification:'Barlow Semi Condensed,  Medium Semi-Condensed';stroke-width:2.471;stroke-linecap:square"
   d="m 58.141874,31.678321 q 0.02133,1.962664 -1.173331,3.029329 -1.194665,1.066665 -3.157329,1.066665 h -4.437326 q -0.213333,0 -0.213333,-0.213333 V 21.054338 q 0,-0.213333 0.213333,-0.213333 h 4.20266 q 2.06933,0 3.242662,1.023999 1.173331,1.002665 1.173331,2.943995 0,2.282663 -1.87733,3.178662 -0.106667,0.064 0,0.106666 0.981332,0.511999 1.493331,1.407998 0.533332,0.895998 0.533332,2.175996 z m -6.847989,-9.066652 q -0.08533,0 -0.08533,0.08533 v 4.501326 q 0,0.08533 0.08533,0.08533 h 2.303996 q 1.109332,0 1.727998,-0.597333 0.639999,-0.618665 0.639999,-1.68533 0,-1.130665 -0.639999,-1.749331 -0.618666,-0.639999 -1.727998,-0.639999 z m 2.431996,11.370649 q 1.109332,0 1.727997,-0.661333 0.639999,-0.682665 0.639999,-1.855997 0,-1.173331 -0.639999,-1.855997 -0.639999,-0.703999 -1.74933,-0.703999 h -2.410663 q -0.08533,0 -0.08533,0.08533 v 4.906659 q 0,0.08533 0.08533,0.08533 z m 11.221335,-9.173319 q 0.639999,0 1.087999,0.255999 0.149333,0.064 0.106666,0.256 l -0.319999,1.621331 q -0.02133,0.213333 -0.256,0.128 -0.319999,-0.106667 -0.703999,-0.106667 -0.277333,0 -0.405332,0.02133 -0.831999,0.064 -1.386665,0.767999 -0.554666,0.682666 -0.554666,1.642664 v 6.165324 q 0,0.213333 -0.213333,0.213333 h -1.621331 q -0.213333,0 -0.213333,-0.213333 V 25.128998 q 0,-0.213333 0.213333,-0.213333 h 1.621331 q 0.213333,0 0.213333,0.213333 v 1.365332 q 0,0.064 0.02133,0.08533 0.04267,0 0.064,-0.04267 0.767999,-1.727997 2.346663,-1.727997 z m 6.549315,11.135982 q -1.663997,0 -2.730662,-0.853332 -1.066665,-0.874665 -1.279998,-2.367996 -0.170667,-1.066665 -0.170667,-2.38933 0,-1.343997 0.170667,-2.367996 0.213333,-1.471997 1.279998,-2.346663 1.066665,-0.874665 2.730662,-0.874665 1.642664,0 2.709329,0.874665 1.066665,0.874666 1.279998,2.32533 0.170667,0.917332 0.170667,2.389329 0,1.471998 -0.170667,2.38933 -0.213333,1.493331 -1.279998,2.367996 -1.045332,0.853332 -2.709329,0.853332 z m 0,-1.770664 q 0.789332,0 1.322665,-0.490665 0.554665,-0.490666 0.682665,-1.301332 0.106667,-0.959998 0.106667,-2.047997 0,-1.109331 -0.106667,-2.026663 -0.128,-0.810665 -0.682665,-1.301331 -0.533333,-0.490666 -1.343998,-0.490666 -0.789332,0 -1.343998,0.490666 -0.533333,0.490666 -0.661332,1.301331 -0.08533,0.746665 -0.08533,2.026663 0,1.301332 0.08533,2.047997 0.127999,0.810666 0.661332,1.301332 0.554666,0.490665 1.365331,0.490665 z m 8.256001,1.599998 q -0.191999,0 -0.234666,-0.192 l -2.666662,-10.431983 -0.02133,-0.08533 q 0,-0.149333 0.192,-0.149333 h 1.621331 q 0.191999,0 0.234666,0.192 l 1.685331,7.402655 q 0.02133,0.064 0.04267,0.064 0.02133,0 0.04267,-0.064 l 1.706664,-7.402655 q 0.04267,-0.192 0.234666,-0.192 h 1.450665 q 0.191999,0 0.234666,0.192 l 1.74933,7.423988 q 0.02133,0.064 0.04267,0.064 0.02133,0 0.04267,-0.064 l 1.727997,-7.423988 q 0.04267,-0.192 0.234666,-0.192 l 1.599998,0.02133 q 0.106666,0 0.149333,0.064 0.064,0.064 0.02133,0.170666 l -2.666662,10.41065 q -0.02133,0.192 -0.234667,0.192 H 85.29919 q -0.191999,0 -0.234666,-0.192 l -1.727997,-7.103989 q -0.02133,-0.064 -0.04267,-0.064 -0.02133,0 -0.04267,0.064 l -1.663997,7.103989 q -0.04267,0.192 -0.234666,0.192 z m 14.933322,0.128 q -1.749331,0 -2.815996,-0.810666 -1.045332,-0.810665 -1.045332,-2.090663 v -0.213333 q 0,-0.213333 0.213333,-0.213333 h 1.514665 q 0.213333,0 0.213333,0.213333 v 0.128 q 0,0.575999 0.554665,1.002665 0.554666,0.426666 1.365332,0.426666 0.810665,0 1.301331,-0.405333 0.511999,-0.405333 0.511999,-1.002665 0,-0.469333 -0.298666,-0.767999 -0.277333,-0.298666 -0.703999,-0.469332 -0.405333,-0.192 -1.215998,-0.469333 -1.002665,-0.319999 -1.706664,-0.661332 -0.682666,-0.362666 -1.173331,-1.002665 -0.490666,-0.661333 -0.490666,-1.663998 0,-1.429331 1.002665,-2.261329 1.023998,-0.831999 2.709329,-0.831999 1.706664,0 2.730662,0.853332 1.045332,0.853332 1.045332,2.239996 v 0.04267 q 0,0.213333 -0.213333,0.213333 h -1.493331 q -0.213333,0 -0.213333,-0.213333 v -0.08533 q 0,-0.618666 -0.511999,-1.023999 -0.512,-0.405332 -1.343998,-0.405332 -0.789332,0 -1.279998,0.383999 -0.469333,0.383999 -0.469333,0.981332 0,0.447999 0.277333,0.746665 0.277333,0.277333 0.682666,0.469333 0.426666,0.192 1.237331,0.469332 1.066665,0.362667 1.749331,0.703999 0.703999,0.341333 1.215998,0.981332 0.511999,0.639999 0.511999,1.642664 0,1.429331 -1.045332,2.26133 -1.045331,0.831999 -2.815995,0.831999 z m 9.813326,-1.727998 q 0.72533,0 1.216,-0.341332 0.512,-0.362666 0.76799,-0.981332 0.064,-0.192 0.256,-0.149333 l 1.45067,0.319999 q 0.21333,0.064 0.14933,0.256 -0.40533,1.258665 -1.408,1.962663 -1.00266,0.703999 -2.45333,0.703999 -1.66399,0 -2.68799,-0.831998 -1.024,-0.831999 -1.30133,-2.282663 -0.10667,-0.597333 -0.14934,-1.258665 -0.0213,-0.682666 -0.0213,-1.791997 0,-1.087999 0.10667,-1.727998 0.192,-1.493331 1.25866,-2.389329 1.06667,-0.917332 2.688,-0.917332 1.77066,0 2.85866,1.002665 1.088,1.002665 1.216,2.645329 0.064,0.725332 0.064,2.666663 0,0.213333 -0.21333,0.213333 h -5.84533 q -0.0853,0 -0.0853,0.08533 0,0.597332 0.064,1.045332 0.10666,0.789332 0.66133,1.279998 0.55467,0.490665 1.408,0.490665 z m -0.10667,-7.658654 q -0.81066,0 -1.344,0.490666 -0.512,0.490666 -0.61866,1.279998 -0.064,0.575999 -0.064,1.258664 0,0.08533 0.0853,0.08533 h 3.92533 q 0.0853,0 0.0853,-0.08533 -0.0427,-0.853332 -0.0853,-1.237331 -0.10667,-0.789332 -0.64,-1.279998 -0.53333,-0.511999 -1.344,-0.511999 z m 10.85866,-1.706664 q 0.64,0 1.088,0.255999 0.14934,0.064 0.10667,0.256 l -0.32,1.621331 q -0.0213,0.213333 -0.256,0.128 -0.32,-0.106667 -0.704,-0.106667 -0.27733,0 -0.40533,0.02133 -0.832,0.064 -1.38667,0.767999 -0.55466,0.682666 -0.55466,1.642664 v 6.165324 q 0,0.213333 -0.21333,0.213333 h -1.62134 q -0.21333,0 -0.21333,-0.213333 V 25.128998 q 0,-0.213333 0.21333,-0.213333 h 1.62134 q 0.21333,0 0.21333,0.213333 v 1.365332 q 0,0.064 0.0213,0.08533 0.0427,0 0.064,-0.04267 0.768,-1.727997 2.34666,-1.727997 z"
   id="text8"
   aria-label="Browser" /></svg>
